<svg width="141" height="32" viewBox="0 0 141 32" fill="none" xmlns="http://www.w3.org/2000/svg">
<path d="M31 7.35898L27.4779 7.29676L25.692 4.40939L24.8083 7.76347L21 8.41685L24.4599 9.87921L24.771 10.0099L24.0367 13.1835L26.1898 11.2731L29.687 13.1835L28.2744 9.3316L31 7.35898Z" fill="#E43A12"/>
<path d="M4.19731 5.03806L6.60556 13.3426L1 19.6955L9.67831 19.3633L13.8306 28L15.2008 18.8651V18.0346L23.2977 17.4948L17.1939 13.7162L19.1869 4L10.8824 10.1453L4.19731 5.03806Z" fill="#E43A12"/>
<path d="M8.06548 29.625L6.79762 27.4881L7.88094 25.3452L5.52976 26.0536L3.74404 24L4.14284 26.625L4.17857 26.8571L2 27.5952L3.94046 28.1905L4.08927 31L5.87499 28.7321L8.06548 29.625Z" fill="#E43A12"/>
<path d="M21.7911 22.3185L22.387 24.3733L21 25.9452L23.1473 25.863L24.1747 28L24.4213 25.6884V25.4829L26.4247 25.339L24.9144 24.4144L25.4075 22L23.3528 23.5308L21.7911 22.3185Z" fill="#E43A12"/>
<path d="M44.668 16.6484C44.3555 16.3229 44.0234 16.0234 43.6719 15.75C43.3203 15.4635 42.9688 15.1836 42.6172 14.9102C42.2786 14.6237 41.9466 14.3307 41.6211 14.0312C41.2956 13.7188 40.9961 13.3802 40.7227 13.0156C40.4362 12.638 40.2083 12.2279 40.0391 11.7852C39.8828 11.3294 39.8568 10.8607 39.9609 10.3789C40.0651 9.85807 40.319 9.40234 40.7227 9.01172C41.1263 8.62109 41.5625 8.3151 42.0312 8.09375C42.5391 7.8724 43.0534 7.72266 43.5742 7.64453C44.0951 7.55339 44.6224 7.5013 45.1562 7.48828C45.6901 7.46224 46.224 7.46224 46.7578 7.48828C47.3047 7.5013 47.8451 7.49479 48.3789 7.46875C48.6263 7.45573 48.8086 7.52734 48.9258 7.68359C49.056 7.83984 49.1211 8.01562 49.1211 8.21094C49.1211 8.40625 49.056 8.58854 48.9258 8.75781C48.8086 8.91406 48.6263 8.9987 48.3789 9.01172C48.0013 9.03776 47.6237 9.05078 47.2461 9.05078C46.8815 9.03776 46.5104 9.02474 46.1328 9.01172C45.625 8.9987 45.1107 9.00521 44.5898 9.03125C44.082 9.05729 43.5807 9.16146 43.0859 9.34375C42.9167 9.40885 42.7344 9.49349 42.5391 9.59766C42.3438 9.6888 42.1615 9.80599 41.9922 9.94922C41.8359 10.0924 41.7057 10.2487 41.6016 10.418C41.4974 10.5872 41.4518 10.7695 41.4648 10.9648C41.4779 11.1471 41.5234 11.3294 41.6016 11.5117C41.6797 11.681 41.7773 11.8503 41.8945 12.0195C42.0247 12.1888 42.1615 12.3516 42.3047 12.5078C42.4479 12.6641 42.5846 12.8073 42.7148 12.9375C43.0143 13.237 43.3268 13.5104 43.6523 13.7578C43.9779 14.0052 44.3034 14.2591 44.6289 14.5195C44.9674 14.793 45.306 15.099 45.6445 15.4375C45.9961 15.763 46.2956 16.1211 46.543 16.5117C46.8034 16.8893 46.9922 17.293 47.1094 17.7227C47.2396 18.1523 47.2591 18.6081 47.168 19.0898C47.0768 19.5456 46.901 19.9362 46.6406 20.2617C46.3932 20.5742 46.0938 20.8607 45.7422 21.1211C45.4036 21.3685 45.0391 21.5964 44.6484 21.8047C44.2708 22 43.9062 22.2018 43.5547 22.4102C43.3333 22.5404 43.125 22.5664 42.9297 22.4883C42.7474 22.4102 42.6042 22.2865 42.5 22.1172C42.4089 21.9479 42.3698 21.7656 42.3828 21.5703C42.4089 21.362 42.5326 21.1927 42.7539 21.0625C43.0664 20.8802 43.3789 20.7109 43.6914 20.5547C44.0039 20.3984 44.3099 20.2227 44.6094 20.0273C44.8958 19.8451 45.1432 19.6302 45.3516 19.3828C45.5729 19.1224 45.6836 18.8229 45.6836 18.4844C45.6706 18.1458 45.5599 17.8203 45.3516 17.5078C45.1562 17.1953 44.9284 16.9089 44.668 16.6484ZM55.0391 15.1836C55.2865 15.1836 55.4688 15.2617 55.5859 15.418C55.7161 15.5742 55.7812 15.75 55.7812 15.9453C55.7812 16.1406 55.7161 16.3229 55.5859 16.4922C55.4688 16.6484 55.2865 16.7266 55.0391 16.7266C54.7266 16.7396 54.4141 16.7396 54.1016 16.7266C53.8021 16.7005 53.5026 16.6745 53.2031 16.6484C53.2161 17.6771 53.1966 18.7057 53.1445 19.7344C53.1055 20.763 53.0013 21.7852 52.832 22.8008C52.806 23.0221 52.6888 23.1849 52.4805 23.2891C52.2721 23.3932 52.0703 23.4128 51.875 23.3477C51.6536 23.2826 51.4974 23.1589 51.4062 22.9766C51.3281 22.8073 51.3086 22.612 51.3477 22.3906C51.5039 21.401 51.5885 20.4115 51.6016 19.4219C51.6276 18.4323 51.6276 17.4362 51.6016 16.4336C51.1068 16.3555 50.6055 16.2773 50.0977 16.1992C49.5898 16.1081 49.0885 16.0299 48.5938 15.9648C48.3724 15.9388 48.2161 15.8216 48.125 15.6133C48.0208 15.3919 47.9948 15.1901 48.0469 15.0078C48.112 14.7865 48.2357 14.6367 48.418 14.5586C48.6003 14.4674 48.7956 14.4349 49.0039 14.4609C49.4336 14.526 49.8633 14.5977 50.293 14.6758C50.7227 14.7409 51.1589 14.806 51.6016 14.8711C51.5885 14.806 51.582 14.7083 51.582 14.5781C51.582 13.4062 51.5755 12.2474 51.5625 11.1016C51.5625 9.95573 51.6211 8.79688 51.7383 7.625C51.7643 7.41667 51.8424 7.23438 51.9727 7.07812C52.1159 6.92188 52.2982 6.84375 52.5195 6.84375C52.7148 6.84375 52.8971 6.92188 53.0664 7.07812C53.2487 7.23438 53.3268 7.41667 53.3008 7.625C53.1706 8.875 53.1055 10.1185 53.1055 11.3555C53.1185 12.5794 53.138 13.8229 53.1641 15.0859C53.4766 15.112 53.7891 15.138 54.1016 15.1641C54.4141 15.1771 54.7266 15.1836 55.0391 15.1836ZM58.2812 21.4727C57.8385 21.2773 57.487 21.0104 57.2266 20.6719C56.9792 20.3203 56.8034 19.9362 56.6992 19.5195C56.6081 19.1029 56.582 18.6732 56.6211 18.2305C56.6602 17.7747 56.7513 17.3385 56.8945 16.9219C57.0117 16.5964 57.1419 16.2578 57.2852 15.9062C57.4414 15.5547 57.6237 15.2292 57.832 14.9297C58.0404 14.6302 58.2878 14.3763 58.5742 14.168C58.8607 13.9466 59.1992 13.8034 59.5898 13.7383C59.9935 13.6732 60.3971 13.6536 60.8008 13.6797C61.2174 13.6927 61.6276 13.7318 62.0312 13.7969C62.2135 13.8229 62.3893 13.8685 62.5586 13.9336C62.7279 13.9857 62.8971 14.0443 63.0664 14.1094C63.0794 13.9141 63.1641 13.7513 63.3203 13.6211C63.4896 13.4909 63.6654 13.4258 63.8477 13.4258C64.069 13.4258 64.2448 13.5039 64.375 13.6602C64.5182 13.8034 64.6029 13.9792 64.6289 14.1875C64.694 14.7865 64.7201 15.3854 64.707 15.9844C64.707 16.5833 64.6875 17.1823 64.6484 17.7812C64.6224 18.3802 64.5964 18.9792 64.5703 19.5781C64.5573 20.1771 64.5638 20.776 64.5898 21.375C64.6029 21.6224 64.5247 21.8112 64.3555 21.9414C64.1992 22.0586 64.0234 22.1172 63.8281 22.1172C63.6328 22.1172 63.4505 22.0586 63.2812 21.9414C63.125 21.8112 63.0404 21.6224 63.0273 21.375C62.2852 21.6875 61.4974 21.8698 60.6641 21.9219C59.8307 21.9609 59.0365 21.8112 58.2812 21.4727ZM58.418 17.2344C58.3398 17.4688 58.2682 17.7357 58.2031 18.0352C58.138 18.3346 58.1185 18.6211 58.1445 18.8945C58.1706 19.168 58.2552 19.4219 58.3984 19.6562C58.5417 19.8776 58.776 20.0339 59.1016 20.125C59.7656 20.3333 60.4297 20.3919 61.0938 20.3008C61.7708 20.2096 62.4023 19.9753 62.9883 19.5977C63.0404 18.9596 63.0794 18.3411 63.1055 17.7422C63.1445 17.1432 63.1576 16.5378 63.1445 15.9258C62.9232 15.7826 62.6953 15.6589 62.4609 15.5547C62.2396 15.4375 61.9922 15.3594 61.7188 15.3203C61.4453 15.2812 61.1523 15.2552 60.8398 15.2422C60.5404 15.2161 60.2474 15.2161 59.9609 15.2422C59.9349 15.2422 59.8633 15.2617 59.7461 15.3008C59.6419 15.3268 59.5833 15.3464 59.5703 15.3594C59.4401 15.4245 59.3229 15.5286 59.2188 15.6719C59.0495 15.9062 58.8997 16.1602 58.7695 16.4336C58.6393 16.694 58.5221 16.9609 58.418 17.2344ZM66.8555 14.0508C66.8685 13.8034 66.9596 13.6211 67.1289 13.5039C67.2982 13.3737 67.4805 13.3086 67.6758 13.3086C67.8711 13.3086 68.0404 13.3737 68.1836 13.5039C68.3398 13.6211 68.4115 13.8034 68.3984 14.0508C68.3984 14.1289 68.3919 14.2135 68.3789 14.3047C68.3789 14.3828 68.3789 14.4609 68.3789 14.5391C68.7956 14.3307 69.2318 14.1549 69.6875 14.0117C70.1562 13.8555 70.6185 13.7578 71.0742 13.7188C71.543 13.6797 71.9922 13.7188 72.4219 13.8359C72.8646 13.9401 73.2682 14.1484 73.6328 14.4609C73.8151 14.6302 73.8932 14.8125 73.8672 15.0078C73.8542 15.2031 73.776 15.3724 73.6328 15.5156C73.5026 15.6458 73.3333 15.7305 73.125 15.7695C72.9167 15.7956 72.7148 15.7305 72.5195 15.5742C72.3763 15.457 72.2135 15.3724 72.0312 15.3203C71.862 15.2682 71.6732 15.2487 71.4648 15.2617C71.2695 15.2617 71.0677 15.2812 70.8594 15.3203C70.6641 15.3594 70.4753 15.4049 70.293 15.457C69.6029 15.6784 68.9583 15.9714 68.3594 16.3359C68.3854 16.974 68.4245 17.612 68.4766 18.25C68.5286 18.7839 68.5742 19.3372 68.6133 19.9102C68.6523 20.4701 68.763 21.0039 68.9453 21.5117C69.0234 21.7461 69.0039 21.9414 68.8867 22.0977C68.7826 22.2669 68.6328 22.3776 68.4375 22.4297C68.2552 22.4818 68.0599 22.4688 67.8516 22.3906C67.6562 22.3125 67.5195 22.1562 67.4414 21.9219C67.3372 21.6224 67.2656 21.3164 67.2266 21.0039C67.1875 20.6914 67.1484 20.3789 67.1094 20.0664C67.0833 19.7669 67.0508 19.4674 67.0117 19.168C66.9857 18.8555 66.9596 18.5495 66.9336 18.25C66.8685 17.5469 66.8229 16.8503 66.7969 16.1602C66.7839 15.457 66.8034 14.7539 66.8555 14.0508ZM75.5078 17.6641C75.1693 17.4167 74.9284 17.1107 74.7852 16.7461C74.6419 16.3685 74.6354 15.9714 74.7656 15.5547C74.8958 15.1771 75.0977 14.8385 75.3711 14.5391C75.6445 14.2396 75.957 13.9987 76.3086 13.8164C76.6992 13.6081 77.1159 13.4453 77.5586 13.3281C78.0013 13.2109 78.4505 13.1458 78.9062 13.1328C79.362 13.1198 79.8112 13.1654 80.2539 13.2695C80.7096 13.3607 81.1393 13.5104 81.543 13.7188C81.7643 13.8359 81.888 13.9922 81.9141 14.1875C81.9401 14.3828 81.901 14.5651 81.7969 14.7344C81.7057 14.9036 81.5625 15.0273 81.3672 15.1055C81.1719 15.1836 80.9635 15.1641 80.7422 15.0469C80.4297 14.8776 80.0781 14.7669 79.6875 14.7148C79.2969 14.6628 78.8997 14.6628 78.4961 14.7148C78.1055 14.7539 77.7344 14.8516 77.3828 15.0078C77.0312 15.1641 76.7383 15.3659 76.5039 15.6133C76.4388 15.6784 76.3932 15.724 76.3672 15.75C76.3542 15.776 76.3281 15.8346 76.2891 15.9258L76.25 16.1406C76.2891 16.2578 76.3216 16.3294 76.3477 16.3555C76.6081 16.5247 76.875 16.6354 77.1484 16.6875C77.4349 16.7266 77.7214 16.7526 78.0078 16.7656C78.4115 16.7917 78.8216 16.8177 79.2383 16.8438C79.668 16.8568 80.0781 16.9089 80.4688 17C80.8724 17.0911 81.2435 17.2409 81.582 17.4492C81.9206 17.6576 82.207 17.9635 82.4414 18.3672C82.7018 18.8229 82.819 19.2982 82.793 19.793C82.7799 20.2747 82.5911 20.7109 82.2266 21.1016C81.862 21.4922 81.4388 21.7656 80.957 21.9219C80.4753 22.0651 79.987 22.1693 79.4922 22.2344C79.0495 22.2865 78.5872 22.2995 78.1055 22.2734C77.6367 22.2474 77.181 22.1693 76.7383 22.0391C76.3086 21.9219 75.9049 21.7396 75.5273 21.4922C75.1497 21.2318 74.8372 20.8932 74.5898 20.4766C74.4727 20.2682 74.4531 20.0729 74.5312 19.8906C74.6094 19.6953 74.7266 19.5521 74.8828 19.4609C75.0521 19.3568 75.2344 19.3177 75.4297 19.3438C75.638 19.3698 75.8073 19.487 75.9375 19.6953C76.1198 19.9948 76.3737 20.2227 76.6992 20.3789C77.0247 20.5352 77.3763 20.6458 77.7539 20.7109C78.1445 20.763 78.5352 20.776 78.9258 20.75C79.3164 20.7109 79.668 20.6589 79.9805 20.5938C80.1497 20.5547 80.319 20.5026 80.4883 20.4375C80.6706 20.3594 80.8203 20.2682 80.9375 20.1641C81.0677 20.0599 81.1589 19.9427 81.2109 19.8125C81.263 19.6693 81.2565 19.513 81.1914 19.3438C81.0612 19.0182 80.8398 18.7839 80.5273 18.6406C80.2279 18.4974 79.9089 18.4128 79.5703 18.3867C79.2318 18.3607 78.8867 18.3477 78.5352 18.3477C78.1836 18.3477 77.832 18.3346 77.4805 18.3086C77.1289 18.2695 76.7839 18.2044 76.4453 18.1133C76.1068 18.0221 75.7943 17.8724 75.5078 17.6641ZM94.2578 16.6484C93.9453 16.3229 93.6133 16.0234 93.2617 15.75C92.9102 15.4635 92.5586 15.1836 92.207 14.9102C91.8685 14.6237 91.5365 14.3307 91.2109 14.0312C90.8854 13.7188 90.5859 13.3802 90.3125 13.0156C90.026 12.638 89.7982 12.2279 89.6289 11.7852C89.4727 11.3294 89.4466 10.8607 89.5508 10.3789C89.6549 9.85807 89.9089 9.40234 90.3125 9.01172C90.7161 8.62109 91.1523 8.3151 91.6211 8.09375C92.1289 7.8724 92.6432 7.72266 93.1641 7.64453C93.6849 7.55339 94.2122 7.5013 94.7461 7.48828C95.2799 7.46224 95.8138 7.46224 96.3477 7.48828C96.8945 7.5013 97.4349 7.49479 97.9688 7.46875C98.2161 7.45573 98.3984 7.52734 98.5156 7.68359C98.6458 7.83984 98.7109 8.01562 98.7109 8.21094C98.7109 8.40625 98.6458 8.58854 98.5156 8.75781C98.3984 8.91406 98.2161 8.9987 97.9688 9.01172C97.5911 9.03776 97.2135 9.05078 96.8359 9.05078C96.4714 9.03776 96.1003 9.02474 95.7227 9.01172C95.2148 8.9987 94.7005 9.00521 94.1797 9.03125C93.6719 9.05729 93.1706 9.16146 92.6758 9.34375C92.5065 9.40885 92.3242 9.49349 92.1289 9.59766C91.9336 9.6888 91.7513 9.80599 91.582 9.94922C91.4258 10.0924 91.2956 10.2487 91.1914 10.418C91.0872 10.5872 91.0417 10.7695 91.0547 10.9648C91.0677 11.1471 91.1133 11.3294 91.1914 11.5117C91.2695 11.681 91.3672 11.8503 91.4844 12.0195C91.6146 12.1888 91.7513 12.3516 91.8945 12.5078C92.0378 12.6641 92.1745 12.8073 92.3047 12.9375C92.6042 13.237 92.9167 13.5104 93.2422 13.7578C93.5677 14.0052 93.8932 14.2591 94.2188 14.5195C94.5573 14.793 94.8958 15.099 95.2344 15.4375C95.5859 15.763 95.8854 16.1211 96.1328 16.5117C96.3932 16.8893 96.582 17.293 96.6992 17.7227C96.8294 18.1523 96.849 18.6081 96.7578 19.0898C96.6667 19.5456 96.4909 19.9362 96.2305 20.2617C95.9831 20.5742 95.6836 20.8607 95.332 21.1211C94.9935 21.3685 94.6289 21.5964 94.2383 21.8047C93.8607 22 93.4961 22.2018 93.1445 22.4102C92.9232 22.5404 92.7148 22.5664 92.5195 22.4883C92.3372 22.4102 92.194 22.2865 92.0898 22.1172C91.9987 21.9479 91.9596 21.7656 91.9727 21.5703C91.9987 21.362 92.1224 21.1927 92.3438 21.0625C92.6562 20.8802 92.9688 20.7109 93.2812 20.5547C93.5938 20.3984 93.8997 20.2227 94.1992 20.0273C94.4857 19.8451 94.7331 19.6302 94.9414 19.3828C95.1628 19.1224 95.2734 18.8229 95.2734 18.4844C95.2604 18.1458 95.1497 17.8203 94.9414 17.5078C94.7461 17.1953 94.5182 16.9089 94.2578 16.6484ZM104.102 20.4766C104.154 20.6589 104.128 20.8542 104.023 21.0625C103.919 21.2708 103.763 21.3945 103.555 21.4336C102.852 21.5508 102.155 21.5443 101.465 21.4141C100.775 21.2708 100.137 20.9714 99.5508 20.5156C98.9779 20.0599 98.5677 19.4805 98.3203 18.7773C98.0859 18.0612 98.0469 17.3451 98.2031 16.6289C98.3464 15.9909 98.6458 15.4375 99.1016 14.9688C99.5573 14.5 100.078 14.1354 100.664 13.875C101.185 13.6276 101.732 13.4323 102.305 13.2891C102.878 13.1458 103.451 13.1003 104.023 13.1523C104.245 13.1784 104.427 13.263 104.57 13.4062C104.727 13.5365 104.805 13.7122 104.805 13.9336C104.805 14.1289 104.727 14.3112 104.57 14.4805C104.427 14.6497 104.245 14.7279 104.023 14.7148C103.607 14.6758 103.197 14.6953 102.793 14.7734C102.389 14.8516 101.999 14.9753 101.621 15.1445C101.4 15.2487 101.178 15.3594 100.957 15.4766C100.749 15.5938 100.566 15.724 100.41 15.8672C100.241 16.0234 100.098 16.1797 99.9805 16.3359C99.8763 16.4922 99.7982 16.6745 99.7461 16.8828C99.694 17.0911 99.6745 17.3125 99.6875 17.5469C99.7005 17.7812 99.7396 18.0156 99.8047 18.25C99.8828 18.4714 99.987 18.6797 100.117 18.875C100.247 19.0573 100.404 19.2135 100.586 19.3438C100.964 19.6172 101.374 19.806 101.816 19.9102C102.272 20.0013 102.715 20.0078 103.145 19.9297C103.353 19.8906 103.548 19.9167 103.73 20.0078C103.913 20.099 104.036 20.2552 104.102 20.4766ZM106.172 21.6094C105.99 21.5443 105.833 21.4206 105.703 21.2383C105.586 21.043 105.566 20.8477 105.645 20.6523C105.866 20.0404 106.016 19.4219 106.094 18.7969C106.172 18.1719 106.224 17.5339 106.25 16.8828C106.263 16.6875 106.27 16.4987 106.27 16.3164C106.27 16.1211 106.276 15.9258 106.289 15.7305C106.25 15.5742 106.263 15.4245 106.328 15.2812C106.354 14.9036 106.38 14.526 106.406 14.1484C106.432 13.7578 106.471 13.3737 106.523 12.9961C106.589 12.4232 106.654 11.8568 106.719 11.2969C106.797 10.724 106.849 10.1445 106.875 9.55859C106.901 9.02474 106.927 8.4974 106.953 7.97656C106.992 7.44271 107.129 6.9349 107.363 6.45312C107.48 6.23177 107.637 6.10807 107.832 6.08203C108.027 6.04297 108.21 6.07552 108.379 6.17969C108.548 6.27083 108.672 6.41406 108.75 6.60938C108.841 6.80469 108.828 7.01302 108.711 7.23438C108.607 7.45573 108.535 7.68359 108.496 7.91797C108.457 8.15234 108.431 8.39323 108.418 8.64062C108.418 8.88802 108.418 9.13542 108.418 9.38281C108.418 9.63021 108.411 9.87109 108.398 10.1055C108.333 10.6914 108.268 11.2773 108.203 11.8633C108.138 12.4362 108.073 13.0156 108.008 13.6016C108.555 13.3281 109.16 13.1784 109.824 13.1523C110.345 13.1393 110.872 13.2305 111.406 13.4258C111.953 13.6081 112.396 13.9076 112.734 14.3242C112.93 14.5716 113.086 14.8451 113.203 15.1445C113.32 15.431 113.411 15.737 113.477 16.0625C113.555 16.375 113.607 16.694 113.633 17.0195C113.659 17.332 113.685 17.638 113.711 17.9375C113.75 18.5495 113.763 19.1615 113.75 19.7734C113.75 20.3724 113.737 20.9844 113.711 21.6094C113.711 21.8568 113.626 22.0391 113.457 22.1562C113.288 22.2865 113.105 22.3516 112.91 22.3516C112.715 22.3516 112.539 22.2865 112.383 22.1562C112.227 22.0391 112.155 21.8568 112.168 21.6094C112.181 21.0885 112.194 20.5677 112.207 20.0469C112.22 19.526 112.214 19.0052 112.188 18.4844C112.161 18.224 112.142 17.957 112.129 17.6836C112.116 17.4102 112.083 17.1367 112.031 16.8633C112.005 16.7331 111.979 16.6094 111.953 16.4922C111.94 16.362 111.914 16.2318 111.875 16.1016C111.862 15.9974 111.829 15.8867 111.777 15.7695C111.738 15.6523 111.712 15.5872 111.699 15.5742C111.673 15.5352 111.654 15.5026 111.641 15.4766C111.628 15.4375 111.608 15.3984 111.582 15.3594C111.465 15.2292 111.393 15.1576 111.367 15.1445C111.315 15.1055 111.27 15.0794 111.23 15.0664C111.191 15.0404 111.152 15.0143 111.113 14.9883C110.97 14.9102 110.807 14.8451 110.625 14.793C110.443 14.7409 110.267 14.7148 110.098 14.7148C109.655 14.6888 109.238 14.7669 108.848 14.9492C108.47 15.1315 108.132 15.4115 107.832 15.7891C107.806 16.6875 107.76 17.5794 107.695 18.4648C107.63 19.3372 107.441 20.2031 107.129 21.0625C107.064 21.2578 106.94 21.4141 106.758 21.5312C106.589 21.6484 106.393 21.6745 106.172 21.6094ZM120.293 12.9961C120.71 12.944 121.146 12.931 121.602 12.957C122.057 12.9701 122.493 13.0482 122.91 13.1914C123.327 13.3216 123.704 13.5234 124.043 13.7969C124.382 14.0703 124.642 14.4284 124.824 14.8711C124.954 15.1836 125.02 15.5026 125.02 15.8281C125.033 16.1406 124.987 16.4466 124.883 16.7461C124.792 17.0326 124.648 17.3125 124.453 17.5859C124.271 17.8464 124.056 18.0872 123.809 18.3086C123.275 18.7904 122.689 19.2005 122.051 19.5391C121.413 19.8776 120.742 20.138 120.039 20.3203C119.74 20.3984 119.427 20.4701 119.102 20.5352C118.789 20.5872 118.47 20.6133 118.145 20.6133C117.819 20.6133 117.5 20.5807 117.188 20.5156C116.875 20.4375 116.582 20.3138 116.309 20.1445C116.113 20.0273 115.996 19.8711 115.957 19.6758C115.879 19.4544 115.794 19.2461 115.703 19.0508C115.612 18.8555 115.521 18.6536 115.43 18.4453C115.352 18.237 115.286 18.0286 115.234 17.8203C115.182 17.612 115.156 17.3971 115.156 17.1758C115.156 16.7331 115.247 16.3164 115.43 15.9258C115.625 15.5221 115.885 15.1706 116.211 14.8711C116.758 14.3503 117.389 13.9336 118.105 13.6211C118.822 13.3086 119.551 13.1003 120.293 12.9961ZM122.5 14.6758C122.148 14.5456 121.771 14.4805 121.367 14.4805C120.938 14.4674 120.508 14.513 120.078 14.6172C119.648 14.7083 119.238 14.8385 118.848 15.0078C118.483 15.151 118.105 15.3529 117.715 15.6133C117.337 15.8607 117.057 16.1667 116.875 16.5312C116.771 16.7266 116.719 16.9284 116.719 17.1367C116.732 17.332 116.764 17.5339 116.816 17.7422C116.882 17.9375 116.96 18.1393 117.051 18.3477C117.155 18.543 117.246 18.7383 117.324 18.9336C117.533 18.9857 117.663 19.0117 117.715 19.0117C117.741 19.0247 117.773 19.0312 117.812 19.0312C117.852 19.0312 117.884 19.0312 117.91 19.0312C118.171 19.0573 118.405 19.0508 118.613 19.0117C118.757 19.0117 118.939 18.9857 119.16 18.9336C119.499 18.8685 119.824 18.7839 120.137 18.6797C120.449 18.5625 120.736 18.4388 120.996 18.3086C121.296 18.1654 121.589 18.0091 121.875 17.8398C122.161 17.6706 122.402 17.4948 122.598 17.3125C122.728 17.1953 122.852 17.0716 122.969 16.9414C123.034 16.8763 123.079 16.8242 123.105 16.7852C123.171 16.694 123.223 16.6289 123.262 16.5898C123.301 16.5378 123.333 16.4792 123.359 16.4141C123.411 16.3229 123.438 16.2513 123.438 16.1992C123.451 16.1732 123.457 16.1406 123.457 16.1016C123.47 16.0625 123.483 16.0299 123.496 16.0039V15.7891C123.483 15.737 123.477 15.6979 123.477 15.6719C123.477 15.6458 123.47 15.6198 123.457 15.5938C123.418 15.5026 123.379 15.4375 123.34 15.3984C123.314 15.3464 123.281 15.2943 123.242 15.2422C123.255 15.2552 123.236 15.2357 123.184 15.1836C123.145 15.1315 123.118 15.099 123.105 15.0859L122.949 14.9297C122.884 14.8906 122.812 14.8451 122.734 14.793C122.656 14.7409 122.578 14.7018 122.5 14.6758ZM130.977 12.9961C131.393 12.944 131.829 12.931 132.285 12.957C132.741 12.9701 133.177 13.0482 133.594 13.1914C134.01 13.3216 134.388 13.5234 134.727 13.7969C135.065 14.0703 135.326 14.4284 135.508 14.8711C135.638 15.1836 135.703 15.5026 135.703 15.8281C135.716 16.1406 135.671 16.4466 135.566 16.7461C135.475 17.0326 135.332 17.3125 135.137 17.5859C134.954 17.8464 134.74 18.0872 134.492 18.3086C133.958 18.7904 133.372 19.2005 132.734 19.5391C132.096 19.8776 131.426 20.138 130.723 20.3203C130.423 20.3984 130.111 20.4701 129.785 20.5352C129.473 20.5872 129.154 20.6133 128.828 20.6133C128.503 20.6133 128.184 20.5807 127.871 20.5156C127.559 20.4375 127.266 20.3138 126.992 20.1445C126.797 20.0273 126.68 19.8711 126.641 19.6758C126.562 19.4544 126.478 19.2461 126.387 19.0508C126.296 18.8555 126.204 18.6536 126.113 18.4453C126.035 18.237 125.97 18.0286 125.918 17.8203C125.866 17.612 125.84 17.3971 125.84 17.1758C125.84 16.7331 125.931 16.3164 126.113 15.9258C126.309 15.5221 126.569 15.1706 126.895 14.8711C127.441 14.3503 128.073 13.9336 128.789 13.6211C129.505 13.3086 130.234 13.1003 130.977 12.9961ZM133.184 14.6758C132.832 14.5456 132.454 14.4805 132.051 14.4805C131.621 14.4674 131.191 14.513 130.762 14.6172C130.332 14.7083 129.922 14.8385 129.531 15.0078C129.167 15.151 128.789 15.3529 128.398 15.6133C128.021 15.8607 127.741 16.1667 127.559 16.5312C127.454 16.7266 127.402 16.9284 127.402 17.1367C127.415 17.332 127.448 17.5339 127.5 17.7422C127.565 17.9375 127.643 18.1393 127.734 18.3477C127.839 18.543 127.93 18.7383 128.008 18.9336C128.216 18.9857 128.346 19.0117 128.398 19.0117C128.424 19.0247 128.457 19.0312 128.496 19.0312C128.535 19.0312 128.568 19.0312 128.594 19.0312C128.854 19.0573 129.089 19.0508 129.297 19.0117C129.44 19.0117 129.622 18.9857 129.844 18.9336C130.182 18.8685 130.508 18.7839 130.82 18.6797C131.133 18.5625 131.419 18.4388 131.68 18.3086C131.979 18.1654 132.272 18.0091 132.559 17.8398C132.845 17.6706 133.086 17.4948 133.281 17.3125C133.411 17.1953 133.535 17.0716 133.652 16.9414C133.717 16.8763 133.763 16.8242 133.789 16.7852C133.854 16.694 133.906 16.6289 133.945 16.5898C133.984 16.5378 134.017 16.4792 134.043 16.4141C134.095 16.3229 134.121 16.2513 134.121 16.1992C134.134 16.1732 134.141 16.1406 134.141 16.1016C134.154 16.0625 134.167 16.0299 134.18 16.0039V15.7891C134.167 15.737 134.16 15.6979 134.16 15.6719C134.16 15.6458 134.154 15.6198 134.141 15.5938C134.102 15.5026 134.062 15.4375 134.023 15.3984C133.997 15.3464 133.965 15.2943 133.926 15.2422C133.939 15.2552 133.919 15.2357 133.867 15.1836C133.828 15.1315 133.802 15.099 133.789 15.0859L133.633 14.9297C133.568 14.8906 133.496 14.8451 133.418 14.793C133.34 14.7409 133.262 14.7018 133.184 14.6758ZM138.105 6.66797C138.34 6.66797 138.522 6.74609 138.652 6.90234C138.783 7.05859 138.861 7.24089 138.887 7.44922C139.017 8.6862 139.089 9.92318 139.102 11.1602C139.115 12.3971 139.095 13.6341 139.043 14.8711C139.004 16.1081 138.939 17.3451 138.848 18.582C138.757 19.819 138.665 21.0495 138.574 22.2734C138.548 22.4948 138.464 22.6771 138.32 22.8203C138.19 22.9766 138.014 23.0547 137.793 23.0547C137.598 23.0547 137.415 22.9766 137.246 22.8203C137.077 22.6771 136.999 22.4948 137.012 22.2734C137.103 21.0495 137.194 19.819 137.285 18.582C137.389 17.3451 137.461 16.1081 137.5 14.8711C137.552 13.6341 137.572 12.3971 137.559 11.1602C137.546 9.92318 137.474 8.6862 137.344 7.44922C137.318 7.24089 137.389 7.05859 137.559 6.90234C137.728 6.74609 137.91 6.66797 138.105 6.66797Z" fill="#292524"/>
</svg>
